<mxfile host="65bd71144e">
    <diagram id="Ge1tBN3r2Mmqnb7UR4H-" name="第 1 页">
        <mxGraphModel dx="672" dy="1139" grid="1" gridSize="10" guides="1" tooltips="1" connect="1" arrows="1" fold="1" page="1" pageScale="1" pageWidth="1169" pageHeight="1654" math="0" shadow="0">
            <root>
                <mxCell id="0"/>
                <mxCell id="1" parent="0"/>
                <mxCell id="7" style="edgeStyle=none;html=1;exitX=0.5;exitY=1;exitDx=0;exitDy=0;strokeWidth=2;fontStyle=1;fontSize=14;fontFamily=Comic Sans MS;sketch=1;curveFitting=1;jiggle=2;" parent="1" source="2" target="3" edge="1">
                    <mxGeometry relative="1" as="geometry"/>
                </mxCell>
                <mxCell id="8" style="edgeStyle=none;html=1;exitX=0.5;exitY=1;exitDx=0;exitDy=0;entryX=0.5;entryY=0;entryDx=0;entryDy=0;strokeWidth=2;fontStyle=1;fontSize=14;fontFamily=Comic Sans MS;sketch=1;curveFitting=1;jiggle=2;" parent="1" source="2" target="6" edge="1">
                    <mxGeometry relative="1" as="geometry"/>
                </mxCell>
                <mxCell id="2" value="" style="ellipse;whiteSpace=wrap;html=1;strokeWidth=2;fillWeight=2;hachureGap=8;fillColor=#FF9999;fillStyle=dots;sketch=1;fontStyle=1;fontSize=14;fontFamily=Comic Sans MS;curveFitting=1;jiggle=2;" parent="1" vertex="1">
                    <mxGeometry x="280" y="220" width="60" height="60" as="geometry"/>
                </mxCell>
                <mxCell id="9" style="edgeStyle=none;html=1;exitX=0.5;exitY=1;exitDx=0;exitDy=0;entryX=0.5;entryY=0;entryDx=0;entryDy=0;strokeWidth=2;fontStyle=1;fontSize=14;fontFamily=Comic Sans MS;sketch=1;curveFitting=1;jiggle=2;" parent="1" source="3" target="4" edge="1">
                    <mxGeometry relative="1" as="geometry"/>
                </mxCell>
                <mxCell id="3" value="B" style="ellipse;whiteSpace=wrap;html=1;strokeWidth=2;fillWeight=2;hachureGap=8;fillColor=#99CCFF;fillStyle=dots;sketch=1;fontStyle=1;fontSize=14;fontFamily=Comic Sans MS;curveFitting=1;jiggle=2;" parent="1" vertex="1">
                    <mxGeometry x="280" y="310" width="60" height="60" as="geometry"/>
                </mxCell>
                <mxCell id="14" style="edgeStyle=none;html=1;exitX=0.5;exitY=1;exitDx=0;exitDy=0;entryX=0.5;entryY=0;entryDx=0;entryDy=0;fontFamily=Comic Sans MS;strokeWidth=2;sketch=1;curveFitting=1;jiggle=2;" parent="1" source="4" target="13" edge="1">
                    <mxGeometry relative="1" as="geometry"/>
                </mxCell>
                <mxCell id="4" value="C" style="ellipse;whiteSpace=wrap;html=1;strokeWidth=2;fillWeight=2;hachureGap=8;fillColor=#99CCFF;fillStyle=dots;sketch=1;fontStyle=1;fontSize=14;fontFamily=Comic Sans MS;curveFitting=1;jiggle=2;" parent="1" vertex="1">
                    <mxGeometry x="150" y="410" width="60" height="60" as="geometry"/>
                </mxCell>
                <mxCell id="5" value="D" style="ellipse;whiteSpace=wrap;html=1;strokeWidth=2;fillWeight=2;hachureGap=8;fillColor=#FFFFFF;fillStyle=dots;sketch=1;fontStyle=1;fontSize=14;fontFamily=Comic Sans MS;curveFitting=1;jiggle=2;" parent="1" vertex="1">
                    <mxGeometry x="410" y="400" width="60" height="60" as="geometry"/>
                </mxCell>
                <mxCell id="6" value="A" style="ellipse;whiteSpace=wrap;html=1;strokeWidth=2;fillWeight=2;hachureGap=8;fillColor=#99CCFF;fillStyle=dots;sketch=1;fontStyle=1;fontSize=14;fontFamily=Comic Sans MS;curveFitting=1;jiggle=2;" parent="1" vertex="1">
                    <mxGeometry x="80" y="320" width="60" height="60" as="geometry"/>
                </mxCell>
                <mxCell id="10" style="edgeStyle=none;html=1;exitX=0.5;exitY=1;exitDx=0;exitDy=0;entryX=0.383;entryY=0.083;entryDx=0;entryDy=0;entryPerimeter=0;strokeWidth=2;fontStyle=1;fontSize=14;fontFamily=Comic Sans MS;sketch=1;curveFitting=1;jiggle=2;" parent="1" source="3" target="5" edge="1">
                    <mxGeometry relative="1" as="geometry"/>
                </mxCell>
                <mxCell id="11" style="edgeStyle=orthogonalEdgeStyle;html=1;exitX=0.5;exitY=1;exitDx=0;exitDy=0;entryX=0.383;entryY=0.033;entryDx=0;entryDy=0;entryPerimeter=0;curved=1;strokeWidth=2;fontStyle=1;fontSize=14;fontFamily=Comic Sans MS;sketch=1;curveFitting=1;jiggle=2;" parent="1" source="2" target="5" edge="1">
                    <mxGeometry relative="1" as="geometry">
                        <Array as="points">
                            <mxPoint x="433" y="280"/>
                        </Array>
                    </mxGeometry>
                </mxCell>
                <mxCell id="12" value="GC Root" style="text;html=1;align=center;verticalAlign=middle;whiteSpace=wrap;rounded=0;fontStyle=1;fontSize=14;fontFamily=Comic Sans MS;sketch=1;curveFitting=1;jiggle=2;" parent="1" vertex="1">
                    <mxGeometry x="360" y="230" width="60" height="30" as="geometry"/>
                </mxCell>
                <mxCell id="13" value="E" style="ellipse;whiteSpace=wrap;html=1;strokeWidth=2;fillWeight=2;hachureGap=8;fillColor=#99CCFF;fillStyle=dots;sketch=1;fontStyle=1;fontSize=14;fontFamily=Comic Sans MS;curveFitting=1;jiggle=2;" parent="1" vertex="1">
                    <mxGeometry x="70" y="510" width="60" height="60" as="geometry"/>
                </mxCell>
                <mxCell id="15" value="" style="rounded=0;whiteSpace=wrap;html=1;strokeColor=none;" parent="1" vertex="1">
                    <mxGeometry x="60" y="580" width="470" height="10" as="geometry"/>
                </mxCell>
            </root>
        </mxGraphModel>
    </diagram>
</mxfile>